<?xml version="1.0" encoding="utf-8"?>
<!-- Generator: Adobe Illustrator 27.5.0, SVG Export Plug-In . SVG Version: 6.00 Build 0)  -->
<svg version="1.1" id="Layer_1" xmlns="http://www.w3.org/2000/svg" xmlns:xlink="http://www.w3.org/1999/xlink" x="0px" y="0px"
	 viewBox="0 0 236 40" style="enable-background:new 0 0 236 40;" xml:space="preserve">
<style type="text/css">
	.st0{fill:#FFFFFF;}
</style>
<path class="st0" d="M20.7,16C20.7,16,20.7,16.1,20.7,16c6,4.6,16.3,15.8,13.2,19c-3.5,3.1-8.1,4.9-13.2,4.9S11,38.1,7.5,35.1
	C4.4,31.9,14.6,20.6,20.7,16C20.6,16.1,20.7,16,20.7,16z M31.1,2.9C28,1.1,24.7,0,20.7,0s-7.4,1.1-10.4,2.9c0,0-0.1,0.1,0,0.1
	c0,0,0.1,0,0.1,0c3.9-0.8,9.8,2.5,10.3,2.8c0,0,0,0,0,0s0,0,0,0c0.6-0.3,6.4-3.7,10.3-2.8C31.1,3.1,31.1,3.1,31.1,2.9
	C31.2,3,31.1,2.9,31.1,2.9z M6.7,5.7C6.7,5.8,6.6,5.8,6.7,5.7c-3.7,3.7-6,8.7-6,14.3c0,4.6,1.5,8.8,4.1,12.1c0,0,0.1,0.1,0.1,0
	c0,0,0-0.1,0-0.1c-1.5-4.7,6.3-16.1,10.3-20.9c0,0,0,0,0-0.1c0,0,0,0,0-0.1C9.1,4.9,7,5.6,6.7,5.7z M26.2,11
	C26.2,11,26.1,11,26.2,11c0,0.1,0,0.1,0,0.1c4,4.8,11.8,16.2,10.3,20.9c0,0,0,0.1,0,0.1c0,0,0.1,0,0.1,0c2.6-3.4,4.1-7.6,4.1-12.1
	c0-5.6-2.3-10.6-5.9-14.2c0,0-0.1-0.1-0.1-0.1C34.3,5.6,32.3,4.9,26.2,11z M88.8,8.3h-4.2l-9.4,24H79l2.3-6.2H92l2.3,6.2h3.8
	L88.8,8.3z M82.5,22.9l4.2-11l4.2,11H82.5z M73.3,19.7v4.4v8.2v0l-3.5,0v-3.1c-0.9,1.2-2,2.1-3.3,2.7c-1.3,0.6-2.8,0.9-4.5,0.9
	c-1.7,0-3.3-0.3-4.7-0.9c-1.4-0.6-2.6-1.5-3.6-2.6c-1-1.1-1.8-2.5-2.4-4c-0.5-1.5-0.8-3.2-0.8-5.1c0-1.9,0.3-3.6,0.8-5.1
	c0.5-1.5,1.3-2.9,2.4-4c1-1.1,2.3-2,3.7-2.6c1.4-0.6,3-0.9,4.8-0.9c2.9,0,5.4,0.8,7.3,2.3c1.9,1.5,3.1,3.6,3.4,6.2l0,0h-3.8l0,0
	c-0.3-1.6-1.1-2.9-2.4-3.8c-1.3-0.9-2.8-1.4-4.6-1.4c-2.4,0-4.3,0.8-5.7,2.5c-1.4,1.6-2.1,3.9-2.1,6.8s0.7,5.1,2.1,6.8
	c1.4,1.7,3.4,2.5,5.8,2.5c2.1,0,3.8-0.7,5.3-1.9c1.4-1.3,2.2-2.9,2.2-4.9h-7.1v-3.1H73.3z M132.1,11.6v7h11.9v3.1h-11.9V29h13.5v3.3
	h-17.2v-24h17.2v3.3H132.1z M124.8,8.3v24h-3.5V13.2c-0.5,1.3-1.1,3-1.8,4.9L114,32.3h-3.1l0,0l-5.5-14.1c-0.7-1.7-1.3-3.4-1.8-4.9
	v19h-3.5v-24h5l4.9,12.8c1,2.6,1.8,4.8,2.4,6.7c0.7-2.2,1.6-4.5,2.5-7l4.8-12.4H124.8z M171.1,10.3c-1.4-1.4-3.5-2-6.1-2h-10.2v24
	h3.7v-8.9h6.6c2.6,0,4.6-0.7,6.1-2c1.4-1.4,2.2-3.2,2.2-5.5C173.3,13.6,172.5,11.7,171.1,10.3z M158.5,11.5h6.5
	c1.5,0,2.6,0.4,3.4,1.1c0.8,0.8,1.2,1.8,1.2,3.2c0,1.4-0.4,2.5-1.2,3.2c-0.8,0.7-1.9,1.1-3.4,1.1h-6.5V11.5z M213.9,25.7
	c0,2.2-0.8,4-2.5,5.3c-1.6,1.3-4,1.9-6.9,1.9c-3.2,0-5.7-0.7-7.4-2.2c-1.8-1.4-2.7-3.6-2.7-6.3l0,0h3.7l0,0c0,1.8,0.6,3.1,1.7,4
	c1.1,0.9,2.7,1.3,4.8,1.3c1.8,0,3.1-0.3,4.1-1c0.9-0.7,1.4-1.7,1.4-3c0-1-0.4-1.8-1.2-2.4c-0.8-0.6-2.2-1.1-4.2-1.5l-2.1-0.4
	c-2.5-0.5-4.3-1.3-5.6-2.4c-1.3-1.1-1.9-2.7-1.9-4.7c0-2,0.8-3.6,2.3-4.8c1.5-1.2,3.6-1.8,6.2-1.8c3.1,0,5.5,0.7,7.1,2
	c1.6,1.3,2.4,3.2,2.5,5.6l0,0h-3.6l0,0c-0.1-1.5-0.6-2.7-1.5-3.4c-0.9-0.7-2.4-1.1-4.4-1.1c-1.6,0-2.8,0.3-3.6,0.9
	c-0.8,0.6-1.2,1.4-1.2,2.5c0,1.1,0.4,1.9,1.1,2.5c0.7,0.6,2.1,1.1,4.1,1.5l2.1,0.4c2.7,0.6,4.7,1.4,5.9,2.5
	C213.3,22.3,213.9,23.8,213.9,25.7z M235.3,25.7c0,2.2-0.8,4-2.5,5.3c-1.6,1.3-4,1.9-6.9,1.9c-3.2,0-5.7-0.7-7.4-2.2
	c-1.8-1.4-2.7-3.6-2.7-6.3l0,0h3.7l0,0c0,1.8,0.6,3.1,1.7,4c1.1,0.9,2.7,1.3,4.8,1.3c1.8,0,3.1-0.3,4.1-1c0.9-0.7,1.4-1.7,1.4-3
	c0-1-0.4-1.8-1.2-2.4c-0.8-0.6-2.2-1.1-4.2-1.5l-2.1-0.4c-2.5-0.5-4.3-1.3-5.6-2.4c-1.3-1.1-1.9-2.7-1.9-4.7c0-2,0.8-3.6,2.3-4.8
	c1.5-1.2,3.6-1.8,6.2-1.8c3.1,0,5.5,0.7,7.1,2c1.6,1.3,2.4,3.2,2.5,5.6l0,0H231l0,0c-0.1-1.5-0.6-2.7-1.5-3.4
	c-0.9-0.7-2.4-1.1-4.4-1.1c-1.6,0-2.8,0.3-3.6,0.9c-0.8,0.6-1.2,1.4-1.2,2.5c0,1.1,0.4,1.9,1.1,2.5c0.7,0.6,2.1,1.1,4.1,1.5l2.1,0.4
	c2.7,0.6,4.7,1.4,5.9,2.5C234.7,22.3,235.3,23.8,235.3,25.7z M184.2,8.3h-4.2l-9.4,24h3.8l2.3-6.2h10.7l2.3,6.2h3.8L184.2,8.3z
	 M178,22.9l4.2-11l4.2,11H178z"/>
</svg>
