<?xml version="1.0" encoding="utf-8"?>
<!-- Generator: Adobe Illustrator 27.10.0, SVG Export Plug-In . SVG Version: 6.00 Build 0)  -->
<svg version="1.1" id="Layer_1" xmlns="http://www.w3.org/2000/svg" xmlns:xlink="http://www.w3.org/1999/xlink" x="0px" y="0px"
	 viewBox="0 0 80 80" style="enable-background:new 0 0 80 80;" xml:space="preserve">
<style type="text/css">
	.st0{display:none;fill:#FFFFFF;}
	.st1{fill:#FFFFFF;}
</style>
<path class="st0" d="M55.1,61.9l-4.4-14.1L68,34.4H46.5l-6.3-20.1l-5.9,20.1H12.7l17.1,13.4L23.2,69l17.1-13.1l11,8.5v7l-11-8.5
	l-27.6,21l10.7-34.1L-3.8,28.9h33.7l10.3-33l10.3,33h33.7L57,49.8l3.8,12.1H55.1z M73.2,56.4v11h11v5.5h-11v11h-5.5v-11h-11v-5.5h11
	v-11H73.2z"/>
<path class="st0" d="M70.5,30.2c0.5,0.4,0.9,0.8,1.3,1.3s0.8,1,1.1,1.6c1,1.9,1.9,3.9,2.7,6c0.8,2,1.7,4.1,2.5,6.1
	c1.1,2.6,2.1,5.3,3,8s1.7,5.5,2.2,8.3c0.2,1.3,0.4,2.5,0.6,3.8c0.2,1.3,0.2,2.5,0.2,3.8c0,1.7-0.2,3.3-0.6,4.9s-1,3.1-1.9,4.6
	c-0.4,0.6-1,1.3-1.6,1.9s-1.3,1.2-2.1,1.7c-0.7,0.5-1.5,0.9-2.4,1.2s-1.7,0.5-2.4,0.5c-0.9,0-1.9-0.4-3-1.2C69.2,82,68,81,66.9,80
	c-1.1-1.1-2.1-2.1-3.1-3.3c-0.9-1.1-1.7-2-2.3-2.7s-1.3-1.5-2-2.4s-1.4-1.6-2.2-2.1l-1-0.7c-0.6-0.4-1.2-0.7-1.8-0.9
	c-0.6-0.2-1.3-0.3-2-0.4s-1.4-0.1-2.1-0.1s-1.4,0-2,0H29.9c-0.7,0-1.4,0.1-2,0.2s-1.3,0.3-2,0.4s-1.3,0.5-1.8,0.9l-1,0.7
	c-0.8,0.6-1.5,1.3-2.2,2.1c-0.7,0.8-1.4,1.6-2,2.4c-0.6,0.7-1.4,1.5-2.3,2.7c-0.9,1.1-2,2.2-3.1,3.3c-1.1,1.1-2.2,2-3.3,2.7
	c-1.1,0.8-2.1,1.2-3,1.2c-0.8,0-1.6-0.2-2.4-0.5s-1.6-0.7-2.4-1.2c-0.7-0.5-1.4-1-2.1-1.7c-0.7-0.6-1.2-1.3-1.6-1.9
	c-0.9-1.5-1.6-3-1.9-4.6s-0.6-3.3-0.6-4.9c0-1.3,0.1-2.6,0.2-3.8s0.3-2.5,0.6-3.8c0.2-1.3,0.6-2.7,1-4.3c0.4-1.5,0.9-3.2,1.5-4.9
	s1.2-3.4,1.8-5.2C2,45.4,2.7,43.7,3.4,42s1.4-3.3,2.1-4.7c0.7-1.5,1.3-2.8,2-4.1c0.3-0.6,0.7-1.1,1.1-1.6c0.4-0.5,0.9-1,1.4-1.4
	v-1.1c0-0.3,0-0.7,0.1-0.9s0.2-0.6,0.4-0.9s0.5-0.5,0.9-0.8c0.3-0.2,0.8-0.4,1.5-0.6s1.4-0.5,2.2-0.7c0.8-0.3,1.6-0.5,2.3-0.6
	c0.7-0.2,1.3-0.3,1.7-0.4c1.1-0.2,2.2-0.4,3.3-0.5c1.1-0.1,2.2-0.2,3.3-0.2c0.4,0,0.9,0,1.4,0s1,0.2,1.4,0.4l0,0
	c0.7,0.3,1.3,0.7,1.9,1.1s1.3,0.7,1.9,1.1H48c0.7-0.4,1.2-0.7,1.7-1s1-0.6,1.5-0.8c0.5-0.2,1-0.4,1.5-0.6c0.5-0.1,1.2-0.2,2-0.2
	c1.1,0,2.2,0.1,3.3,0.2s2.2,0.3,3.3,0.5c0.4,0.1,1,0.2,1.7,0.4c0.7,0.2,1.5,0.4,2.3,0.6s1.5,0.5,2.2,0.7s1.2,0.5,1.5,0.7
	c0.7,0.5,1.1,1,1.2,1.6C70.4,28.7,70.5,29.4,70.5,30.2z M73.4,78.3c1-0.3,1.9-0.7,2.6-1.4c0.7-0.6,1.2-1.4,1.6-2.2s0.7-1.7,0.8-2.7
	s0.2-1.9,0.3-2.9c0-1.1-0.1-2.2-0.2-3.4c-0.1-1.1-0.3-2.2-0.5-3.4c-0.6-3-1.4-6-2.5-8.9s-2.2-5.8-3.4-8.7c-0.7-1.5-1.3-3.1-1.9-4.6
	s-1.3-3.1-2.1-4.6c-0.2-0.4-0.5-0.8-0.9-1c-0.3-0.2-0.7-0.5-1-0.8s-0.6-0.6-0.9-0.9c-0.3-0.3-0.4-0.7-0.3-1.4v-0.9
	c-1.6-0.6-3.3-1-4.9-1.4c-1.7-0.3-3.4-0.5-5.1-0.5h-0.5c-0.2,0-0.3,0-0.5,0c-1.1,0.6-1.9,1.1-2.4,1.5c-0.5,0.3-1.1,0.6-1.6,0.8
	s-1.1,0.3-1.6,0.3c-0.6,0-1.4,0-2.6,0H34.7c-1.1,0-2,0-2.6,0s-1.1-0.1-1.6-0.3s-1-0.4-1.6-0.8c-0.6-0.3-1.4-0.8-2.4-1.5
	c-0.1,0-0.3,0-0.5,0s-0.3,0-0.5,0c-1.7,0-3.4,0.2-5.1,0.5s-3.3,0.8-5,1.4c0,0.8-0.1,1.4-0.2,1.9c-0.1,0.5-0.6,0.9-1.3,1.4
	c-0.3,0.2-0.6,0.4-0.9,0.6s-0.5,0.6-0.7,0.9c-0.8,1.5-1.5,3-2.1,4.5s-1.3,3.1-1.9,4.7c-1.2,2.8-2.3,5.7-3.4,8.6S3,59,2.4,62.1
	c-0.2,1.1-0.4,2.2-0.5,3.3c-0.1,1.1-0.2,2.2-0.2,3.4c0,0.9,0.1,1.9,0.2,2.8c0.1,0.9,0.4,1.8,0.9,2.7c0.4,0.9,1,1.6,1.6,2.2
	s1.5,1.1,2.6,1.4c0.4-0.3,1-0.7,1.7-1.4c0.7-0.7,1.5-1.4,2.2-2.2c0.8-0.8,1.5-1.6,2.2-2.4s1.2-1.4,1.6-1.9c0.3-0.3,0.7-0.7,1.1-1.3
	c0.5-0.5,1-1.1,1.5-1.6s1-1.1,1.5-1.5c0.5-0.5,0.9-0.8,1.3-1.1c0.1-0.1,0.3-0.2,0.4-0.3c0.1-0.1,0.2-0.2,0.4-0.3
	c0.8-0.6,1.6-1.1,2.5-1.4s1.8-0.6,2.7-0.7c0.9-0.2,1.9-0.3,2.8-0.3c1,0,1.9-0.1,2.9-0.1h16.5c1,0,1.9,0,2.9,0c0.9,0,1.9,0.1,2.8,0.3
	c0.9,0.2,1.9,0.4,2.7,0.7s1.7,0.8,2.5,1.4c0.1,0.1,0.3,0.2,0.4,0.3c0.1,0.1,0.2,0.2,0.4,0.3c0.4,0.2,0.8,0.6,1.3,1
	c0.5,0.5,1,1,1.5,1.5c0.5,0.6,1,1.1,1.5,1.7c0.4,0.5,0.8,1,1.2,1.3c0.4,0.5,1,1.1,1.6,1.9c0.7,0.8,1.4,1.5,2.1,2.3s1.5,1.5,2.2,2.2
	C72.3,77.5,72.9,78,73.4,78.3z M40.2,37.1c0.7,0,1.4,0.3,1.9,0.8s0.8,1.2,0.8,1.9s-0.3,1.4-0.8,1.9s-1.2,0.8-1.9,0.8
	s-1.4-0.3-1.9-0.8s-0.8-1.2-0.8-1.9s0.3-1.4,0.8-1.9C38.8,37.3,39.5,37.1,40.2,37.1z"/>
<path class="st0" d="M84.2,50.9c0,3.8-0.7,7.4-2.1,10.7s-3.4,6.2-5.9,8.8c-2.5,2.5-5.4,4.5-8.7,5.9c-3.3,1.4-6.9,2.1-10.7,2.1
	c-3,0-5.8-0.5-8.7-1.4c-2.8-0.9-5.4-2.3-7.8-4.1l-11,11l-33-33l38.5-38.5h33v13.3c2.5,1.1,4.8,2.5,6.8,4.3c2,1.7,3.8,3.7,5.2,5.9
	c1.4,2.2,2.5,4.6,3.4,7.1C83.8,45.5,84.2,48.1,84.2,50.9z M29.2,76.1l33-33V29.6c-0.4-0.1-1-0.1-1.7-0.2c-0.7,0-1.4-0.1-2.3-0.1
	c-0.8-0.1-1.7-0.1-2.5-0.2s-1.6-0.2-2.2-0.5c-0.7-0.2-1.2-0.5-1.7-0.9s-0.7-0.9-0.6-1.5c0-0.7,0.3-1.4,0.8-1.9s1.2-0.8,1.9-0.8h1
	c1.2,0,2.4,0,3.6,0.1s2.4,0.2,3.6,0.5V18H37L4,51L29.2,76.1z M78.7,50.9c0-2-0.3-3.9-0.8-5.7s-1.2-3.6-2.2-5.2
	c-0.9-1.7-2.1-3.2-3.4-4.5s-2.9-2.5-4.6-3.6v13.5L44.2,68.9c1.8,1.3,3.8,2.3,6,2.9c2.1,0.7,4.3,1,6.6,1c3,0,5.8-0.6,8.5-1.7
	c2.7-1.1,5-2.7,7-4.8c2-2,3.6-4.4,4.7-7S78.7,53.9,78.7,50.9z"/>
<path class="st1" d="M50.1,30c-2.1,0-4,0.4-5.8,1.1s-3.3,1.8-4.6,3.2c-1.3,1.4-2.4,2.9-3.2,4.7c-0.8,1.8-1.2,3.7-1.3,5.7V45
	c0,2.4-0.5,4.6-1.6,6.7S31,55.6,29.1,57c1.1,0.6,2.2,1.2,3.2,2c1,0.8,1.9,1.6,2.7,2.6v10.8c-0.3-1.8-0.8-3.5-1.7-5
	c-0.9-1.5-2-2.8-3.3-3.9c-1.3-1.1-2.8-2-4.5-2.6c-1.7-0.6-3.4-0.9-5.2-0.9c-2.1,0-4,0.4-5.8,1.2c-1.8,0.8-3.4,1.9-4.7,3.2
	s-2.4,3-3.2,4.8c-0.8,1.8-1.2,3.7-1.2,5.8h-5c0-1.9,0.3-3.7,0.8-5.5c0.5-1.8,1.3-3.4,2.2-5c1-1.6,2.1-3,3.5-4.2s2.9-2.3,4.6-3.2
	C9.5,55.6,8,53.9,7,51.8S5.4,47.4,5.4,45c0-2.1,0.4-4,1.2-5.8c0.8-1.8,1.8-3.4,3.2-4.8c1.3-1.4,2.9-2.4,4.7-3.2s3.8-1.2,5.9-1.2
	c2.4,0,4.6,0.5,6.7,1.6c2.1,1.1,3.9,2.6,5.3,4.5c1-2,2.2-3.7,3.7-5.2c1.5-1.5,3.3-2.8,5.2-3.8c-1.9-1.4-3.4-3.2-4.5-5.3
	c-1.1-2.1-1.6-4.4-1.6-6.8c0-2.1,0.4-4,1.2-5.8c0.8-1.8,1.8-3.4,3.2-4.8s2.9-2.4,4.7-3.2S48,0,50.1,0c2.1,0,4,0.4,5.8,1.2
	C57.7,2,59.3,3,60.6,4.4s2.4,3,3.2,4.8C64.6,11,65,12.9,65,15c0,2.4-0.5,4.6-1.6,6.7s-2.6,3.9-4.5,5.3c1.7,0.9,3.2,1.9,4.6,3.2
	s2.5,2.7,3.5,4.2c1,1.6,1.7,3.2,2.2,5c0.5,1.8,0.8,3.6,0.8,5.5h-5c0-2.1-0.4-4-1.2-5.8c-0.8-1.8-1.8-3.4-3.2-4.8
	c-1.4-1.4-2.9-2.4-4.7-3.2S52.2,30,50.1,30z M40.1,15c0,1.4,0.3,2.7,0.8,3.9c0.5,1.2,1.2,2.3,2.1,3.2s1.9,1.7,3.2,2.1
	c1.2,0.5,2.5,0.8,3.9,0.8c1.4,0,2.7-0.3,3.9-0.8s2.2-1.2,3.2-2.1s1.6-2,2.1-3.2c0.5-1.2,0.8-2.5,0.8-3.9c0-1.4-0.3-2.6-0.8-3.9
	S58,8.8,57.1,8s-1.9-1.6-3.2-2.1C52.7,5.3,51.4,5,50.1,5c-1.4,0-2.7,0.3-3.9,0.8S44,7,43.1,7.9s-1.6,2-2.1,3.2S40.1,13.6,40.1,15z
	 M20.3,55c1.4,0,2.7-0.3,3.9-0.8c1.2-0.5,2.2-1.2,3.1-2.1c0.9-0.9,1.6-2,2.1-3.2c0.5-1.2,0.8-2.5,0.8-3.9c0-1.4-0.3-2.6-0.8-3.9
	c-0.5-1.2-1.2-2.3-2.1-3.2c-0.9-0.9-1.9-1.6-3.2-2.1c-1.2-0.5-2.5-0.8-3.9-0.8c-1.4,0-2.7,0.3-3.9,0.8c-1.2,0.5-2.2,1.2-3.2,2.2
	c-0.9,0.9-1.6,2-2.1,3.2s-0.8,2.5-0.8,3.9c0,1.4,0.3,2.7,0.8,3.9c0.5,1.2,1.2,2.2,2.1,3.2c0.9,0.9,1.9,1.6,3.2,2.1
	C17.6,54.7,18.9,54.9,20.3,55z M72.6,53c0.6,0.3,1,0.6,1.2,1c0.2,0.4,0.4,0.9,0.6,1.5c0.1,0.5,0.4,1.1,0.7,1.7
	c0.3,0.6,0.6,1.2,0.8,1.7c0.7,1.6,1.3,3.2,1.9,4.8c0.6,1.6,1.1,3.3,1.4,5c0.1,0.6,0.2,1.2,0.2,1.8c0.1,0.6,0.1,1.2,0.1,1.8
	c0,0.8-0.1,1.7-0.3,2.5c-0.2,0.8-0.5,1.6-1,2.3c-0.2,0.4-0.5,0.7-0.9,1.1c-0.3,0.3-0.7,0.7-1.2,0.9s-0.9,0.5-1.3,0.7
	S74.2,80,73.6,80c-0.8,0-1.6-0.3-2.4-1c-0.8-0.7-1.5-1.4-2.3-2.3s-1.4-1.6-2-2.4c-0.6-0.8-1.1-1.2-1.6-1.3c-0.3-0.1-0.7-0.2-1-0.2
	s-0.7,0-1.1,0h-8c-0.4,0-0.8,0.1-1.1,0.2c-0.3,0.1-0.7,0.3-1.1,0.7s-0.8,0.8-1.2,1.4c-0.4,0.5-0.9,1.1-1.4,1.6
	c-0.5,0.5-1,1.1-1.5,1.6c-0.5,0.5-1,0.9-1.6,1.2C47.1,79.8,46.5,80,46,80c-0.4,0-0.9-0.1-1.4-0.2s-0.9-0.4-1.3-0.6
	c-0.4-0.3-0.8-0.6-1.2-0.9c-0.4-0.4-0.7-0.7-0.9-1.1c-0.5-0.8-0.8-1.6-1-2.5c-0.2-0.9-0.3-1.8-0.3-2.7c0-1.1,0.2-2.5,0.5-4.1
	c0.3-1.6,0.7-3.2,1.2-4.8c0.5-1.6,1-3.2,1.6-4.8c0.6-1.5,1.1-2.8,1.6-3.9c0-0.8,0.2-1.5,0.5-2.1c0.3-0.6,0.9-0.9,1.9-1.1
	c0.3,0,0.5,0,0.7,0s0.5-0.1,0.7-0.2c0.8-0.4,1.6-0.6,2.4-0.7c0.9-0.1,1.7-0.2,2.6-0.2c0.5,0,0.8,0,1.1,0c0.3,0,0.5,0.1,0.7,0.2
	s0.5,0.2,0.7,0.4c0.2,0.1,0.5,0.3,0.9,0.5h5.6c0.3-0.2,0.6-0.4,0.8-0.5c0.2-0.2,0.4-0.3,0.6-0.4c0.2-0.1,0.4-0.2,0.7-0.2
	c0.3-0.1,0.6-0.1,1-0.1c0.5,0,1.1,0,1.8,0.1c0.7,0.1,1.4,0.2,2.1,0.5c0.7,0.2,1.3,0.5,1.9,0.9C72.1,51.9,72.4,52.4,72.6,53z
	 M73.9,74.7c0.3-0.3,0.5-0.7,0.6-1.1s0.1-0.9,0.1-1.3c0-1.1-0.2-2.3-0.5-3.6c-0.3-1.3-0.7-2.7-1.2-4c-0.5-1.4-1-2.7-1.6-4
	c-0.6-1.3-1.1-2.4-1.6-3.4c-0.5-0.1-1-0.3-1.3-0.7s-0.6-0.8-0.7-1.4c-0.3-0.1-0.6-0.2-0.9-0.2c-0.3,0-0.7-0.1-1-0.1
	c-0.1,0.1-0.2,0.2-0.4,0.4s-0.4,0.3-0.7,0.4c-0.2,0.1-0.5,0.2-0.7,0.3c-0.3,0.1-0.4,0.1-0.5,0.2h-7.3c-0.1,0-0.3,0-0.5-0.1
	s-0.5-0.2-0.8-0.4s-0.5-0.3-0.7-0.4c-0.2-0.1-0.3-0.2-0.4-0.4c-0.6,0-1,0-1.3,0c-0.3,0-0.6,0.1-0.9,0.2s-0.5,0.2-0.8,0.3
	c-0.3,0.1-0.7,0.2-1.1,0.4c-0.1,0.3-0.2,0.5-0.3,0.7c-0.1,0.2-0.2,0.4-0.4,0.6c-0.2,0.3-0.4,0.8-0.6,1.4s-0.5,1.3-0.7,2.1
	c-0.3,0.8-0.5,1.6-0.7,2.5S46.3,65,46,65.8c-0.2,0.8-0.4,1.6-0.6,2.2c-0.2,0.7-0.3,1.2-0.4,1.6l-0.2,1.2c-0.1,0.4-0.1,0.8-0.1,1.2
	c0,0.2,0,0.4,0,0.7s0.1,0.5,0.1,0.8c0.1,0.3,0.1,0.5,0.3,0.8c0.1,0.3,0.3,0.4,0.4,0.5c1-1,1.8-1.9,2.5-2.8s1.3-1.5,2-2.1
	s1.5-1.1,2.5-1.4c1-0.4,2.2-0.5,3.8-0.5h6.9c1.6,0,2.8,0.2,3.7,0.5s1.7,0.8,2.4,1.4s1.4,1.3,2,2.2C72.1,72.8,72.9,73.7,73.9,74.7z
	 M58.5,60.1c0.4,0,0.7,0.1,0.9,0.4c0.2,0.2,0.4,0.5,0.4,0.9c0,0.3-0.1,0.6-0.4,0.9c-0.2,0.2-0.5,0.4-0.9,0.4c-0.3,0-0.6-0.1-0.9-0.4
	c-0.2-0.2-0.4-0.5-0.4-0.9c0-0.3,0.1-0.6,0.4-0.9C57.8,60.2,58.1,60.1,58.5,60.1z"/>
</svg>
