<?xml version="1.0" encoding="utf-8"?>
<!-- Generator: Adobe Illustrator 24.2.0, SVG Export Plug-In . SVG Version: 6.00 Build 0)  -->
<svg version="1.1" id="Layer_1" xmlns="http://www.w3.org/2000/svg" xmlns:xlink="http://www.w3.org/1999/xlink" x="0px" y="0px"
	 viewBox="0 0 80 80" style="enable-background:new 0 0 80 80;" xml:space="preserve">
<style type="text/css">
	.st0{display:none;fill:#FFFFFF;}
	.st1{fill:#FFFFFF;}
</style>
<path class="st0" d="M55.1,61.9l-4.4-14.1L68,34.4H46.5l-6.3-20.1l-5.9,20.1H12.7l17.1,13.4L23.2,69l17.1-13.1l11,8.5v7l-11-8.5
	l-27.6,21l10.7-34.1L-3.8,28.9h33.7l10.3-33l10.3,33h33.7L57,49.8l3.8,12.1H55.1z M73.2,56.4v11h11v5.5h-11v11h-5.5v-11h-11v-5.5h11
	v-11H73.2z"/>
<path class="st0" d="M84.2,50.9c0,3.8-0.7,7.4-2.1,10.7c-1.4,3.3-3.4,6.2-5.9,8.8c-2.5,2.5-5.4,4.5-8.7,5.9
	c-3.3,1.4-6.9,2.1-10.7,2.1c-3,0-5.8-0.5-8.7-1.4c-2.8-0.9-5.4-2.3-7.8-4.1l-11,11l-33-33l38.5-38.5h33v13.3
	c2.5,1.1,4.8,2.5,6.8,4.3c2,1.7,3.8,3.7,5.2,5.9c1.4,2.2,2.5,4.6,3.4,7.1C83.8,45.5,84.2,48.1,84.2,50.9z M29.2,76.1l33-33V29.6
	c-0.4-0.1-1-0.1-1.7-0.2c-0.7,0-1.4-0.1-2.3-0.1c-0.8-0.1-1.7-0.1-2.5-0.2c-0.8-0.1-1.6-0.2-2.2-0.5c-0.7-0.2-1.2-0.5-1.7-0.9
	s-0.7-0.9-0.6-1.5c0-0.7,0.3-1.4,0.8-1.9s1.2-0.8,1.9-0.8h1c1.2,0,2.4,0,3.6,0.1s2.4,0.2,3.6,0.5V18H37L4,51L29.2,76.1z M78.7,50.9
	c0-2-0.3-3.9-0.8-5.7s-1.2-3.6-2.2-5.2c-0.9-1.7-2.1-3.2-3.4-4.5s-2.9-2.5-4.6-3.6v13.5L44.2,68.9c1.8,1.3,3.8,2.3,6,2.9
	c2.1,0.7,4.3,1,6.6,1c3,0,5.8-0.6,8.5-1.7c2.7-1.1,5-2.7,7-4.8c2-2,3.6-4.4,4.7-7S78.7,53.9,78.7,50.9z"/>
<path class="st0" d="M67.6,50.9c2.3,0,4.4,0.4,6.4,1.3c2,0.9,3.8,2,5.3,3.5s2.7,3.2,3.6,5.2s1.3,4.2,1.3,6.5s-0.4,4.4-1.3,6.4
	s-2,3.7-3.5,5.2s-3.3,2.7-5.3,3.6s-4.2,1.3-6.4,1.3H18.2c-3,0-5.9-0.6-8.6-1.7s-5-2.7-7-4.7s-3.6-4.3-4.7-7s-1.7-5.6-1.7-8.6
	s0.6-5.9,1.7-8.6c1.1-2.7,2.7-5,4.7-7s4.3-3.6,7-4.7c2.7-1.1,5.6-1.7,8.6-1.7c1.3,0,2.6,0.1,4,0.4c1.1-1.8,2.5-3.4,4-4.8
	c1.5-1.4,3.1-2.6,4.9-3.6c1.8-1,3.7-1.7,5.7-2.2s4-0.7,6.2-0.8c3.2,0,6.2,0.6,9,1.7c2.8,1.1,5.3,2.6,7.5,4.6s4,4.3,5.4,7
	C66.2,44.9,67.1,47.8,67.6,50.9z M67.7,78.4c1.5,0,2.9-0.3,4.3-0.9s2.5-1.4,3.5-2.4s1.8-2.2,2.4-3.5c0.5-1.3,0.8-2.7,0.9-4.3
	c0-1.5-0.3-2.9-0.9-4.3c-0.6-1.3-1.4-2.5-2.4-3.5s-2.2-1.8-3.5-2.4c-1.3-0.5-2.7-0.8-4.3-0.9h-5.5v-2.7c0-2.7-0.5-5.2-1.5-7.5
	s-2.4-4.4-4.1-6.1c-1.7-1.8-3.8-3.2-6.1-4.1s-4.8-1.5-7.5-1.5c-2,0-3.9,0.3-5.8,0.9c-1.9,0.6-3.6,1.4-5.1,2.5s-2.9,2.4-4.2,3.9
	c-1.2,1.5-2.2,3.2-2.9,5.2c-2.1-1-4.4-1.5-6.8-1.5c-2.3,0-4.4,0.4-6.4,1.3c-2,0.9-3.7,2-5.2,3.5S3.9,53.5,3,55.5s-1.3,4.2-1.3,6.4
	c0,2.3,0.4,4.4,1.3,6.4s2,3.7,3.5,5.2s3.2,2.7,5.2,3.6s4.2,1.3,6.4,1.3H67.7z"/>
<path class="st1" d="M66.9,31.1c0.4,0.4,0.8,0.7,1.2,1.2c0.4,0.4,0.7,0.9,1,1.4c0.9,1.7,1.7,3.5,2.4,5.3c0.7,1.8,1.5,3.6,2.2,5.4
	c1,2.3,1.9,4.7,2.7,7.1s1.5,4.9,1.9,7.4c0.2,1.2,0.4,2.2,0.5,3.4s0.2,2.2,0.2,3.4c0,1.5-0.2,2.9-0.5,4.3c-0.4,1.4-0.9,2.7-1.7,4.1
	c-0.4,0.5-0.9,1.2-1.4,1.7s-1.2,1.1-1.9,1.5c-0.6,0.4-1.3,0.8-2.1,1.1c-0.8,0.3-1.5,0.4-2.1,0.4c-0.8,0-1.7-0.4-2.7-1.1
	c-0.8-0.6-1.9-1.5-2.8-2.4c-1-1-1.9-1.9-2.7-2.9c-0.8-1-1.5-1.8-2-2.4c-0.5-0.6-1.2-1.3-1.8-2.1c-0.6-0.8-1.2-1.4-2-1.9l-0.9-0.6
	c-0.5-0.4-1.1-0.6-1.6-0.8c-0.5-0.2-1.2-0.3-1.8-0.4c-0.6-0.1-1.2-0.1-1.9-0.1c-0.6,0-1.2,0-1.8,0H30.9c-0.6,0-1.2,0.1-1.8,0.2
	c-0.5,0.1-1.2,0.3-1.8,0.4c-0.6,0.1-1.2,0.4-1.6,0.8L24.9,66c-0.7,0.5-1.3,1.2-2,1.9c-0.6,0.7-1.2,1.4-1.8,2.1
	c-0.5,0.6-1.2,1.3-2,2.4c-0.8,1-1.8,1.9-2.7,2.9c-1,1-2,1.8-2.9,2.4c-1,0.7-1.9,1.1-2.7,1.1c-0.7,0-1.4-0.2-2.1-0.4
	c-0.7-0.3-1.4-0.6-2.1-1.1c-0.6-0.4-1.2-0.9-1.9-1.5c-0.6-0.5-1.1-1.2-1.4-1.7c-0.8-1.3-1.4-2.7-1.7-4.1s-0.5-2.9-0.5-4.3
	c0-1.2,0.1-2.3,0.2-3.4s0.3-2.2,0.5-3.4c0.2-1.2,0.5-2.4,0.9-3.8C3,53.8,3.5,52.3,4,50.8c0.5-1.5,1.1-3,1.6-4.6
	c0.6-1.6,1.2-3.1,1.9-4.6c0.6-1.5,1.2-2.9,1.9-4.2c0.6-1.3,1.2-2.5,1.8-3.6c0.3-0.5,0.6-1,1-1.4c0.4-0.4,0.8-0.9,1.2-1.2v-1
	c0-0.3,0-0.6,0.1-0.8c0.1-0.2,0.2-0.5,0.4-0.8c0.2-0.3,0.4-0.4,0.8-0.7c0.3-0.2,0.7-0.4,1.3-0.5c0.6-0.2,1.2-0.4,2-0.6
	c0.7-0.3,1.4-0.4,2-0.5c0.6-0.2,1.2-0.3,1.5-0.4c1-0.2,2-0.4,2.9-0.4c1-0.1,2-0.2,2.9-0.2c0.4,0,0.8,0,1.2,0s0.9,0.2,1.2,0.4l0,0
	c0.6,0.3,1.2,0.6,1.7,1c0.5,0.4,1.2,0.6,1.7,1H47c0.6-0.4,1.1-0.6,1.5-0.9c0.4-0.3,0.9-0.5,1.3-0.7c0.4-0.2,0.9-0.4,1.3-0.5
	c0.4-0.1,1.1-0.2,1.8-0.2c1,0,2,0.1,2.9,0.2c1,0.1,2,0.3,2.9,0.4c0.4,0.1,0.9,0.2,1.5,0.4c0.6,0.2,1.3,0.4,2,0.5s1.3,0.4,2,0.6
	c0.6,0.2,1.1,0.4,1.3,0.6c0.6,0.4,1,0.9,1.1,1.4C66.8,29.8,66.9,30.4,66.9,31.1z M69.5,73.7c0.9-0.3,1.7-0.6,2.3-1.2
	c0.6-0.5,1.1-1.2,1.4-1.9c0.4-0.7,0.6-1.5,0.7-2.4c0.1-0.9,0.2-1.7,0.3-2.6c0-1-0.1-2-0.2-3c-0.1-1-0.3-1.9-0.4-3
	c-0.5-2.7-1.2-5.3-2.2-7.9c-1-2.6-1.9-5.1-3-7.7c-0.6-1.3-1.2-2.7-1.7-4.1c-0.5-1.3-1.2-2.7-1.9-4.1c-0.2-0.4-0.4-0.7-0.8-0.9
	c-0.3-0.2-0.6-0.4-0.9-0.7s-0.5-0.5-0.8-0.8c-0.3-0.3-0.4-0.6-0.3-1.2v-0.8c-1.4-0.5-2.9-0.9-4.3-1.2c-1.5-0.3-3-0.4-4.5-0.4h-0.4
	c-0.2,0-0.3,0-0.4,0c-1,0.5-1.7,1-2.1,1.3c-0.4,0.3-1,0.5-1.4,0.7c-0.4,0.2-1,0.3-1.4,0.3c-0.5,0-1.2,0-2.3,0h-9.8c-1,0-1.8,0-2.3,0
	c-0.5,0-1-0.1-1.4-0.3c-0.4-0.2-0.9-0.4-1.4-0.7c-0.5-0.3-1.2-0.7-2.1-1.3c-0.1,0-0.3,0-0.4,0c-0.2,0-0.3,0-0.4,0
	c-1.5,0-3,0.2-4.5,0.4c-1.5,0.3-2.9,0.7-4.4,1.2c0,0.7-0.1,1.2-0.2,1.7s-0.5,0.8-1.2,1.2c-0.3,0.2-0.5,0.4-0.8,0.5s-0.4,0.5-0.6,0.8
	c-0.7,1.3-1.3,2.7-1.9,4c-0.5,1.3-1.2,2.7-1.7,4.2c-1.1,2.5-2,5.1-3,7.6c-1,2.6-1.7,5.2-2.2,8c-0.2,1-0.4,1.9-0.4,2.9
	c-0.1,1-0.2,1.9-0.2,3c0,0.8,0.1,1.7,0.2,2.5s0.4,1.6,0.8,2.4c0.4,0.8,0.9,1.4,1.4,1.9s1.3,1,2.3,1.2c0.4-0.3,0.9-0.6,1.5-1.2
	c0.6-0.6,1.3-1.2,1.9-1.9c0.7-0.7,1.3-1.4,2-2.1c0.6-0.7,1.1-1.2,1.4-1.7c0.3-0.3,0.6-0.6,1-1.2c0.4-0.4,0.9-1,1.3-1.4
	s0.9-1,1.3-1.3c0.4-0.4,0.8-0.7,1.2-1c0.1-0.1,0.3-0.2,0.4-0.3c0.1-0.1,0.2-0.2,0.4-0.3c0.7-0.5,1.4-1,2.2-1.2
	c0.8-0.3,1.6-0.5,2.4-0.6c0.8-0.2,1.7-0.3,2.5-0.3c0.9,0,1.7-0.1,2.6-0.1h14.6c0.9,0,1.7,0,2.6,0c0.8,0,1.7,0.1,2.5,0.3
	c0.8,0.2,1.7,0.4,2.4,0.6c0.7,0.3,1.5,0.7,2.2,1.2c0.1,0.1,0.3,0.2,0.4,0.3c0.1,0.1,0.2,0.2,0.4,0.3c0.4,0.2,0.7,0.5,1.2,0.9
	c0.4,0.4,0.9,0.9,1.3,1.3c0.4,0.5,0.9,1,1.3,1.5c0.4,0.4,0.7,0.9,1.1,1.2c0.4,0.4,0.9,1,1.4,1.7c0.6,0.7,1.2,1.3,1.9,2
	c0.6,0.7,1.3,1.3,1.9,1.9C68.5,73,69.1,73.5,69.5,73.7z M40.1,37.2c0.6,0,1.2,0.3,1.7,0.7c0.4,0.4,0.7,1.1,0.7,1.7
	c0,0.6-0.3,1.2-0.7,1.7c-0.4,0.4-1.1,0.7-1.7,0.7c-0.6,0-1.2-0.3-1.7-0.7c-0.4-0.4-0.7-1.1-0.7-1.7c0-0.6,0.3-1.2,0.7-1.7
	C38.8,37.4,39.4,37.2,40.1,37.2z"/>
</svg>
